HIERARCHY
ROOT hip
{
  OFFSET 0 0 0
  CHANNELS 6 Xposition Yposition Zposition Zrotation Yrotation Xrotation
  JOINT abdomen
  {
    OFFSET 0 20.6881 -0.73152
    CHANNELS 3 Zrotation Xrotation Yrotation
    JOINT chest
    {
      OFFSET 0 11.7043 -0.48768
      CHANNELS 3 Zrotation Xrotation Yrotation
      JOINT neck
      {
        OFFSET 0 22.1894 -2.19456
        CHANNELS 3 Zrotation Xrotation Yrotation
        JOINT head
        {
          OFFSET -0.24384 7.07133 1.2192
          CHANNELS 3 Zrotation Xrotation Yrotation
          JOINT leftEye
          {
            OFFSET 4.14528 8.04674 8.04672
            CHANNELS 3 Zrotation Xrotation Yrotation
            End Site
            {
              OFFSET 1 0 0
            }
          }
          JOINT rightEye
          {
            OFFSET -3.6576 8.04674 8.04672
            CHANNELS 3 Zrotation Xrotation Yrotation
            End Site
            {
              OFFSET 1 0 0
            }
          }
        }
      }
      JOINT rCollar
      {
        OFFSET -2.68224 19.2634 -4.8768
        CHANNELS 3 Zrotation Xrotation Yrotation
        JOINT rShldr
        {
          OFFSET -8.77824 -1.95073 1.46304
          CHANNELS 3 Zrotation Xrotation Yrotation
          JOINT rForeArm
          {
            OFFSET -28.1742 -1.7115 0.48768
            CHANNELS 3 Zrotation Xrotation Yrotation
            JOINT rHand
            {
              OFFSET -22.5879 0.773209 7.07136
              CHANNELS 3 Zrotation Xrotation Yrotation
              JOINT rThumb1
              {
                OFFSET -1.2192 -0.487915 3.41376
                CHANNELS 3 Zrotation Xrotation Yrotation
                JOINT rThumb2
                {
                  OFFSET -3.37035 -0.52449 3.41376
                  CHANNELS 3 Zrotation Xrotation Yrotation
                  End Site
                  {
                    OFFSET -1.78271 -1.18214 1.43049
                  }
                }
              }
              JOINT rIndex1
              {
                OFFSET -7.75947 0.938293 5.60832
                CHANNELS 3 Zrotation Xrotation Yrotation
                JOINT rIndex2
                {
                  OFFSET -2.54057 -0.884171 1.56538
                  CHANNELS 3 Zrotation Xrotation Yrotation
                  End Site
                  {
                    OFFSET -1.62519 -0.234802 1.16502
                  }
                }
              }
              JOINT rMid1
              {
                OFFSET -8.24714 1.18213 3.41376
                CHANNELS 3 Zrotation Xrotation Yrotation
                JOINT rMid2
                {
                  OFFSET -3.10165 -0.590103 1.0647
                  CHANNELS 3 Zrotation Xrotation Yrotation
                  End Site
                  {
                    OFFSET -2.48547 -0.328903 0.83742
                  }
                }
              }
              JOINT rRing1
              {
                OFFSET -8.82822 0.546677 1.51678
                CHANNELS 3 Zrotation Xrotation Yrotation
                JOINT rRing2
                {
                  OFFSET -2.60934 -0.819778 -0.0198488
                  CHANNELS 3 Zrotation Xrotation Yrotation
                  End Site
                  {
                    OFFSET -2.33842 -0.294052 0.168128
                  }
                }
              }
              JOINT rPinky1
              {
                OFFSET -8.27202 -0.0477905 -0.4584
                CHANNELS 3 Zrotation Xrotation Yrotation
                JOINT rPinky2
                {
                  OFFSET -1.82734 -0.647385 -0.700984
                  CHANNELS 3 Zrotation Xrotation Yrotation
                  End Site
                  {
                    OFFSET -1.69225 -0.51767 -0.607171
                  }
                }
              }
            }
          }
        }
      }
      JOINT lCollar
      {
        OFFSET 2.68224 19.2634 -4.8768
        CHANNELS 3 Zrotation Xrotation Yrotation
        JOINT lShldr
        {
          OFFSET 8.77824 -1.95073 1.46304
          CHANNELS 3 Zrotation Xrotation Yrotation
          JOINT lForeArm
          {
            OFFSET 28.1742 -1.7115 0.48768
            CHANNELS 3 Zrotation Xrotation Yrotation
            JOINT lHand
            {
              OFFSET 22.5879 0.773209 7.07136
              CHANNELS 3 Zrotation Xrotation Yrotation
              JOINT lThumb1
              {
                OFFSET 1.2192 -0.487915 3.41376
                CHANNELS 3 Zrotation Xrotation Yrotation
                JOINT lThumb2
                {
                  OFFSET 3.37035 -0.52449 3.41376
                  CHANNELS 3 Zrotation Xrotation Yrotation
                  End Site
                  {
                    OFFSET 1.78271 -1.18214 1.43049
                  }
                }
              }
              JOINT lIndex1
              {
                OFFSET 7.75947 0.938293 5.60832
                CHANNELS 3 Zrotation Xrotation Yrotation
                JOINT lIndex2
                {
                  OFFSET 2.54057 -0.884171 1.56538
                  CHANNELS 3 Zrotation Xrotation Yrotation
                  End Site
                  {
                    OFFSET 1.62519 -0.234802 1.16502
                  }
                }
              }
              JOINT lMid1
              {
                OFFSET 8.24714 1.18213 3.41376
                CHANNELS 3 Zrotation Xrotation Yrotation
                JOINT lMid2
                {
                  OFFSET 3.10165 -0.590103 1.0647
                  CHANNELS 3 Zrotation Xrotation Yrotation
                  End Site
                  {
                    OFFSET 2.48547 -0.328903 0.83742
                  }
                }
              }
              JOINT lRing1
              {
                OFFSET 8.82822 0.546677 1.51678
                CHANNELS 3 Zrotation Xrotation Yrotation
                JOINT lRing2
                {
                  OFFSET 2.60934 -0.819778 -0.0198488
                  CHANNELS 3 Zrotation Xrotation Yrotation
                  End Site
                  {
                    OFFSET 2.33842 -0.294052 0.168128
                  }
                }
              }
              JOINT lPinky1
              {
                OFFSET 8.27202 -0.0477905 -0.4584
                CHANNELS 3 Zrotation Xrotation Yrotation
                JOINT lPinky2
                {
                  OFFSET 1.82734 -0.647385 -0.700984
                  CHANNELS 3 Zrotation Xrotation Yrotation
                  End Site
                  {
                    OFFSET 1.69225 -0.51767 -0.607171
                  }
                }
              }
            }
          }
        }
      }
    }
  }
  JOINT rButtock
  {
    OFFSET -8.77824 4.35084 1.2192
    CHANNELS 3 Zrotation Xrotation Yrotation
    JOINT rThigh
    {
      OFFSET 0 -1.70687 -2.19456
      CHANNELS 3 Zrotation Xrotation Yrotation
      JOINT rShin
      {
        OFFSET 0 -36.8199 0.73152
        CHANNELS 3 Zrotation Xrotation Yrotation
        JOINT rFoot
        {
          OFFSET 0.73152 -45.1104 -5.12064
          CHANNELS 3 Zrotation Xrotation Yrotation
          End Site
          {
            OFFSET -1.1221 -3.69964 12.103
          }
        }
      }
    }
  }
  JOINT lButtock
  {
    OFFSET 8.77824 4.35084 1.2192
    CHANNELS 3 Zrotation Xrotation Yrotation
    JOINT lThigh
    {
      OFFSET 0 -1.70687 -2.19456
      CHANNELS 3 Zrotation Xrotation Yrotation
      JOINT lShin
      {
        OFFSET 0 -36.8199 0.73152
        CHANNELS 3 Zrotation Xrotation Yrotation
        JOINT lFoot
        {
          OFFSET -0.73152 -45.1104 -5.12064
          CHANNELS 3 Zrotation Xrotation Yrotation
          End Site
          {
            OFFSET 1.1221 -3.69964 12.103
          }
        }
      }
    }
  }
}
MOTION
Frames:	7
Frame Time:	0.00833333
1.3925999999999998 42.2291 197.2917 -142.981835 80.818164 -136.169928 3.255635 18.656216 0.0 -1.617503 -15.057242 20.660503 -8.823573 29.922716 -112.907586 30.193666 26.019243 147.606428 0.002907 0.0 0.000188 -0.002178 0.0 -0.002168 -151.250815 17.63122 156.522821 145.413516 -2.151541 -173.362147 167.389002 -32.190458 26.795563 169.154734 -14.196317 144.967889 -2.889854 2.82785 0.514245 11.74325 -15.36863 -6.906036 -46.208274 39.653771 36.317334 -162.804132 -8.55474 112.06334 -0.570734 1.648474 0.32147 80.542751 -78.001025 52.07432 -145.121279 1.974039 -179.749678 -73.814707 -78.008689 -95.175787 -126.796844 -26.620376 -124.514022 45.419266 80.039403 -8.387758 -0.058537 -0.352847 0.078192 118.001946 -12.552984 -159.633115 -157.039374 7.627842 59.5209 21.282737 21.034205 -3.499091 -116.309843 -50.010506 -56.953974 179.049264 -64.974956 -135.865423 162.636134 -37.465445 -122.650041 -12.650617 1.38418 9.478923 151.476054 17.841207 -137.53764 42.407511 58.296207 -36.596408 75.672208 -72.117683 92.828446 149.875433 -26.385508 179.939545 26.566179 -38.860083 25.606769 23.846332 -41.264829 25.392691 -0.006139 -0.000499 -0.00307 -67.42019 -45.898101 20.211574 107.197612 8.143601 -2.188374 174.619682 44.597598 96.70137 0.000301 0.001299 -0.000387 96.114593 -58.425408 -180.0 104.052966 -18.661228 -79.115288 49.75246 -23.431347 0.53933
1.3431 42.3486 197.2347 -142.753693 80.74045 -135.850761 3.385037 18.756784 -0.0 -1.609394 -15.094313 20.540271 -8.881717 29.923047 -112.87936 30.322441 26.130523 147.596022 -0.000332 -0.0 0.001484 0.000279 -0.0 -0.000824 -155.503871 -3.514691 161.8381 113.592968 58.705596 -139.14522 109.465326 -75.86814 -37.026448 169.004295 -14.672705 144.882111 8.54648 -8.53862 -0.683743 -43.180691 30.118316 34.856394 37.213529 -57.918555 -0.644814 -147.811499 -0.125848 112.809735 -89.835453 60.704283 81.263307 -25.22654 49.141779 20.967602 -0.015844 -1.322998 -0.416854 9.341546 12.723153 1.663492 -146.208009 15.405654 -142.730472 -14.537709 -29.803172 -16.527977 155.445574 -3.134413 -161.758086 -149.2485 -2.00239 173.777821 80.500408 -46.210801 -47.941905 -14.287087 -69.59267 -1.114849 -179.689769 -17.76052 -89.218947 -36.532525 -70.810134 -26.660352 138.493844 4.896735 -114.86525 -95.112199 -70.106755 -44.153814 -149.54199 -77.524622 -117.447115 163.419827 -4.586615 -143.092642 75.943959 -72.111558 93.113228 -14.038196 28.307769 0.862834 -17.205041 60.274464 -12.763604 -39.22184 80.871321 3.625242 -179.975688 75.749883 -0.016635 141.036034 5.898077 3.838062 -172.569369 78.798797 -147.991744 -104.316431 37.270017 6.035071 -179.997075 75.749883 0.0 -145.214557 -15.64621 -111.218846 -115.774391 -7.236463 -84.125972 109.242051 5.016662 155.904179
1.2982 42.4844 197.1857 -141.976886 80.62503 -134.992915 1.52306 15.099245 125.60263 -9.542372 6.203846 -104.054876 2.378398 14.275712 23.39024 -6.862586 -20.582404 14.687302 -0.000783 0.0 -0.001961 -0.000556 -0.0 0.003281 -80.166116 68.371705 83.260862 -74.611353 28.842494 57.833782 -173.845186 -45.168936 -71.824877 -7.983006 31.200764 1.932687 -103.199119 36.330621 60.111447 -130.763756 -16.841728 74.156904 2.325304 -3.867904 -1.25984 -165.982781 -20.589853 109.695887 0.291323 -0.849574 -0.158836 -1.311543 12.639194 2.163993 0.001108 0.063926 0.019472 -154.184723 -65.020207 -178.251052 0.097293 0.258269 0.093064 -13.365103 -30.59682 -14.478166 155.716613 -4.925244 -162.135917 -148.734518 4.97483 172.747342 -165.230134 44.742285 -44.801837 161.64366 23.289852 -135.604755 172.745319 -10.423811 -89.930216 138.113415 10.377195 -69.719427 166.82117 -43.973565 -122.063278 -170.438149 -57.086304 -105.265117 8.416666 20.880655 -5.643832 -177.7723 -53.119279 -140.002779 -0.005248 1.771423 -0.556234 155.560098 -1.15663 -171.989094 143.9398 8.26545 140.718669 137.439525 -12.806154 133.836926 -0.009294 -0.000436 -0.009294 -67.724097 -47.425039 106.786198 143.926767 -58.60391 161.791707 -69.191502 57.714679 -166.292009 -179.997989 75.75012 -0.002075 -147.606171 -15.509517 104.199534 106.233637 -23.897507 -133.28345 116.723784 38.218173 -17.671603
1.2524 42.6307 197.1247 -141.244308 80.500637 -134.169429 1.697767 15.219336 125.544413 -9.556083 6.206684 -104.093209 10.460237 21.243861 83.241125 -29.172114 2.612991 -44.018996 -0.00015 0.0 -0.004297 8.3e-05 0.0 0.000943 -9.651901 34.836012 11.200037 69.178796 -22.124806 64.098727 -33.64341 12.860709 125.472859 4.83593 -8.287331 2.189924 -169.571718 -7.253851 89.93068 -48.042075 -15.005645 10.128321 -124.892296 21.790964 105.251466 0.470369 12.504743 -5.546422 -8.415443 20.880711 5.644742 -172.007799 -31.357598 144.087662 -145.101428 -1.438654 -178.677164 -154.198068 -11.166128 -177.71025 -17.347908 -30.441031 -16.590063 -37.952424 -49.171645 -38.906841 -0.163319 -0.989999 0.218815 107.150206 16.625082 -157.558293 90.169687 35.371841 107.125773 -126.548901 -81.582009 -107.179789 89.136107 38.428138 -50.299247 107.183646 -10.109711 -71.450286 27.421545 30.639389 -20.098424 171.555874 -22.810635 -110.298797 160.098043 -4.901216 -142.96878 163.772842 -6.247542 -143.111881 0.014981 -1.322994 0.416897 -10.442211 -0.05403 0.075354 -1.480386 4.004186 -1.359348 24.309256 -41.344152 24.916443 -179.991008 75.74998 -0.006152 141.527849 6.35297 -0.0 -171.58777 75.782715 -108.452856 -54.401197 -56.170025 -121.202136 0.000245 -0.001396 -0.000315 98.132402 -57.564839 -81.103592 -121.938764 -53.622361 129.181353 152.599253 -60.626339 60.023677
1.1996 42.801 197.0387 -140.70346 80.409436 -133.518569 4.847727 18.921359 -22.41645 3.421623 -14.784923 43.115723 2.268021 14.257054 23.088566 -6.764788 -20.990663 15.145421 -0.000127 -0.0 9.9e-05 -0.000127 -0.0 9.9e-05 -0.009874 0.056056 0.0129 -100.779192 15.538743 139.670983 133.786128 -73.647468 -120.69537 -15.338634 47.111371 5.430437 -173.770104 -11.440151 89.891638 17.697018 -62.983377 16.239644 -0.32744 0.529942 0.186194 9.811857 2.504603 -0.155437 -173.03751 -44.088016 144.929403 179.826335 -48.660381 140.964172 -145.0992 -1.522303 -178.650402 -154.276291 71.876739 169.597688 -80.938705 -51.226529 -79.359893 16.345002 41.543947 7.189752 157.879678 -65.637813 -175.445621 -11.33359 13.084518 41.284878 96.164063 -67.221662 -110.936156 176.88072 -21.052017 -145.326462 166.630261 -4.30538 -89.771209 -90.565139 -64.407463 -67.591071 -0.185109 -0.300476 0.102936 3.588804 19.568886 -5.020085 160.339846 -5.644589 -143.087285 42.491866 58.274627 -36.598346 145.117722 0.18527 179.187013 155.546325 1.352303 179.397821 -12.634974 42.933789 -10.530492 95.094414 -51.702651 93.672346 -0.000904 -0.000513 -0.000452 -66.265227 -46.391087 40.075822 107.3576 -10.438963 12.647361 -66.357842 -40.343724 -134.462499 179.993718 75.75121 0.004298 -146.962527 -14.074344 9.69615 119.923204 54.434279 -42.243102 -83.976891 49.667617 -24.912182
1.1464999999999999 42.9689 196.9617 -140.022609 80.269231 -132.702554 2.021755 15.440691 125.429043 -9.583998 6.209394 -104.166753 10.72509 22.357376 89.715245 -30.243159 5.945646 -49.509524 0.002724 -0.0 -0.001863 0.002094 0.0 0.000466 -157.843857 -65.803518 175.514608 100.049367 50.41609 -79.17527 -25.397789 41.955276 129.324414 -1.123198 10.562903 0.925622 -78.030805 38.690066 42.412315 -6.688857 -10.751023 27.322919 -148.885503 -12.610265 120.244129 -134.6024 32.332068 108.203131 -160.09782 -4.901335 142.968484 3.439118 -0.617505 0.280067 -5.4e-05 0.022866 0.005381 -36.411504 76.185631 49.572006 16.517238 57.859103 12.54546 -25.414201 -40.944099 -25.375342 6.04321 25.598923 -7.235378 115.207676 4.344961 -138.214996 -3.878116 -36.398932 144.354341 168.326886 7.051348 -140.715093 107.933374 35.148861 -63.317501 -88.353376 -49.857789 -43.874288 140.763145 1.380846 -116.229579 -10.652073 -2.72828 9.689908 -78.538812 -80.918268 -49.689664 -2.471589 1.610551 -0.390148 145.120314 0.309788 179.226357 153.33187 -19.050094 176.448154 0.344698 -0.890426 0.317139 22.739745 -40.183991 23.490208 0.000803 -0.000194 -0.001032 -65.287854 -46.269238 20.245357 105.718549 22.182408 -164.319971 138.941417 31.766622 -24.241485 -179.982302 75.749836 -0.012109 -147.13751 -14.033949 9.608035 119.112798 54.789029 -45.370598 -28.220459 -9.781064 -72.037571
1.0909 43.1633 196.8647 -139.368748 80.136925 -131.899735 2.147565 15.523873 125.340262 -9.610328 6.206524 -104.173364 10.897876 24.88993 104.117403 -30.814407 13.673143 -61.872513 -0.002763 0.0 -0.000365 -0.002126 0.0 -0.002705 -159.219036 -49.3617 170.709091 -176.555909 9.806561 -137.782579 81.126962 35.020785 87.393758 -159.68997 58.875827 136.261723 -169.319325 -7.001 89.921961 -127.813774 11.267825 61.766602 -124.521698 22.157687 104.963034 -19.727132 37.710601 7.054779 -167.373929 -28.008464 145.27039 -114.050613 58.981348 104.319692 -0.00037 -0.060832 -0.019204 9.146616 13.596568 1.79649 -23.838932 -36.726047 -22.935099 -22.346443 -40.122933 -23.889378 3.908121 18.449223 -4.804054 -55.921817 -1.222485 -34.028762 -107.807822 51.477319 -90.478859 136.225031 51.814865 -112.679772 0.441589 0.43532 -0.068887 -22.600227 -36.258004 15.130744 131.387185 14.603462 -110.096305 164.647197 -15.319521 -118.297297 -17.125977 -49.945474 2.058477 7.495465 26.155725 -6.104123 72.351575 72.975404 -90.217779 159.841685 0.094454 -176.242016 -6.228628 18.789518 -5.573277 -1.288557 -2.267882 0.7653 0.001209 -0.000584 0.001813 -65.839035 -47.770707 108.374951 150.610607 -68.700102 79.533316 -73.927157 -30.867938 -142.65344 0.001209 -0.000584 0.001813 96.015937 -57.09069 -6.461533 -108.429908 4.824082 -6.28924 60.465682 -50.284589 128.422658
